<?xml version="1.0" encoding="UTF-8"?>
<!DOCTYPE svg PUBLIC "-//W3C//DTD SVG 1.1//EN" "http://www.w3.org/Graphics/SVG/1.1/DTD/svg11.dtd">
<!-- Creator: CorelDRAW -->
<svg xmlns="http://www.w3.org/2000/svg" xml:space="preserve" width="297mm" height="297mm" version="1.1" style="shape-rendering:geometricPrecision; text-rendering:geometricPrecision; image-rendering:optimizeQuality; fill-rule:evenodd; clip-rule:evenodd"
viewBox="0 0 29700 29700"
 xmlns:xlink="http://www.w3.org/1999/xlink"
 xmlns:xodm="http://www.corel.com/coreldraw/odm/2003">
 <defs>
  <style type="text/css">
   <![CDATA[
    .str0 {stroke:black;stroke-width:20;stroke-miterlimit:22.9256}
    .fil1 {fill:#D6D6DB}
    .fil0 {fill:#D6D6DB}
    .fil2 {fill:white}
   ]]>
  </style>
 </defs>
 <g id="Layer_x0020_1">
  <metadata id="CorelCorpID_0Corel-Layer"/>
  <rect class="fil0 str0" x="-0.53" y="0.53" width="29700" height="29700"/>
  <path class="fil1" d="M13904.82 1586.21c-4138.57,334.27 -7053.53,2244.16 -8961.35,4364.05 -2015.7,2239.76 -3709.41,5719.08 -3388.38,9844.07 227.81,2927.05 1311.23,5590.9 3126.2,7684.88l592.37 639.6c164.01,145.93 201.95,277.75 637.88,635.13 1348.92,1105.76 2333.17,1871.72 4101.45,2527.42 1750.17,648.98 3645.24,1038.77 5742.99,872.26 3407.4,-270.48 5771.27,-1451.98 8146.96,-3509.83 679.47,-588.56 1800.56,-1972.73 2242.09,-2720.65 1438.01,-2435.83 2201.85,-4969.8 1981.76,-8023.02 -201.93,-2801.33 -1195.97,-5138.99 -2758.06,-7199.48l-1180.62 -1324.17c-96.78,-94.04 -112.05,-85.16 -206.27,-187.74 -106.52,-115.98 -106.34,-126.5 -220.56,-219.14 -616.16,-499.75 -1137.72,-978.85 -1877.84,-1415.41 -2406.62,-1419.51 -5000.69,-2208.5 -7978.62,-1967.97z"/>
  <path class="fil2" d="M6652.44 20973.18c179.39,284.29 504.09,642.51 715.63,875.15 3433.02,3775.31 9565.62,4373.31 13715.75,1117.53 625.26,-490.53 1086.69,-966.79 1604.79,-1556.19 413.82,-470.79 414.68,-398.08 55.8,-972.77 -790.93,-1266.57 -1906.9,-2353.72 -3246.66,-3119.02 -371.34,-212.13 -1762.01,-907.53 -2255.31,-922.23 -140,-4.19 -986.68,255.27 -1287.81,303.35 -922.45,147.29 -1963.95,121.53 -2865.92,-135.65 -686.86,-195.86 -577.62,-228.94 -1261.12,1.14 -1646.89,554.42 -2736.81,1387.73 -3846.99,2522.83 -274.73,280.9 -1224.21,1439.28 -1328.16,1885.86z"/>
  <path class="fil2" d="M14322.04 6298.32c-2216.49,292.81 -4126.21,2258.56 -3778.32,4863.24 292.81,2192.25 2272.14,4071.57 4852.09,3740.72 2175.21,-278.95 4043.72,-2247.81 3751,-4830.65 -250.05,-2206.28 -2339.69,-4101.61 -4824.77,-3773.31z"/>
 </g>
</svg>
