<?xml version="1.0" encoding="UTF-8"?>
<!DOCTYPE svg PUBLIC "-//W3C//DTD SVG 1.1//EN" "http://www.w3.org/Graphics/SVG/1.1/DTD/svg11.dtd">
<!-- Creator: CorelDRAW -->
<svg xmlns="http://www.w3.org/2000/svg" xml:space="preserve" width="297mm" height="297mm" version="1.1" style="shape-rendering:geometricPrecision; text-rendering:geometricPrecision; image-rendering:optimizeQuality; fill-rule:evenodd; clip-rule:evenodd"
viewBox="0 0 29700 29700"
 xmlns:xlink="http://www.w3.org/1999/xlink"
 xmlns:xodm="http://www.corel.com/coreldraw/odm/2003">
 <defs>
  <style type="text/css">
   <![CDATA[
    .fil1 {fill:#EB006E}
    .fil0 {fill:#00144F;fill-rule:nonzero}
   ]]>
  </style>
 </defs>
 <g id="Layer_x0020_1">
  <metadata id="CorelCorpID_0Corel-Layer"/>
  <g id="_2190688591520">
   <path class="fil0" d="M23714 19858.42c0,-25482.96 0,25578.9 0,0zm-9025.59 7448.05c-1413.73,0 -2685.24,-301.73 -3814.51,-905.17 -1129.28,-603.44 -2017.18,-1465.47 -2663.7,-2586.08 -646.52,-1120.67 -969.78,-2430.98 -969.78,-3930.93 0,-1482.73 327.54,-2788.71 982.72,-3917.99 655.12,-1129.27 1551.68,-1995.57 2689.56,-2599.01 1137.88,-603.45 2413.72,-905.17 3827.45,-905.17 1413.73,0 2689.56,301.72 3827.44,905.17 1137.88,603.44 2034.44,1469.74 2689.56,2599.01 1320.79,2276.52 1321.84,5565.2 -12.93,7835.98 -663.73,1129.28 -1568.89,1995.58 -2715.44,2599.02 -1146.48,603.44 -2426.58,905.17 -3840.37,905.17zm0 -3827.45c844.82,0 1564.62,-310.38 2159.4,-931.03 594.84,-620.65 892.23,-1508.55 892.23,-2663.7 0,-1155.14 -288.79,-2043.04 -866.36,-2663.69 -577.58,-620.65 -1288.71,-931.03 -2133.53,-931.03 -862.03,0 -1577.56,306.05 -2146.47,918.09 -568.97,612.05 -853.42,1504.28 -853.42,2676.63 0,1155.15 280.18,2043.05 840.49,2663.7 560.3,620.65 1262.89,931.03 2107.66,931.03z"/>
   <path class="fil1" d="M22475.84 7383.67l22.74 4945.64c-454.91,426.16 -733.88,642.57 -751.71,1467.17 -13.84,641.55 -81.45,1560.15 104.91,2063.28 388.56,286.53 1712.83,277.29 2108.91,-1.14 212.57,-476.55 145.15,-1424.24 125.22,-2061.87 -31.44,-1006.79 -174.46,-927.85 -769.5,-1467.44l-10 -5283.66c285.01,-154.27 1937.26,-682.12 -53.12,-1433.86 -821.75,-310.41 -1527.03,-616.11 -2302.05,-920.28 -1570.76,-616.52 -3147.68,-1237 -4716.15,-1859 -1894.97,-751.4 -1295.52,-551.57 -4581.85,721.93 -1612.81,625.04 -3105.77,1246.55 -4713.72,1866 -2889.66,1113.14 -979.44,1407.66 1306.25,2320.83 1597.3,638.16 3097.71,1234.49 4715.7,1862.46 2447.53,949.9 1465.76,913.09 4761.48,-375.9 1368.19,-535.14 3411.73,-1498.92 4752.89,-1844.16z"/>
   <path class="fil1" d="M21087.19 8471.22c-1133.8,349.01 -5519.85,2328.06 -6174.43,2352.93 -605.8,23 -5193.88,-2036.05 -6270.3,-2355.21 -88.03,902.33 -53.46,2134.62 -40.04,3062.61 17.04,1178.52 261.55,1413.22 1093.75,1881.44 2709.5,-2347.98 6534.09,-2518.46 10287.83,26.04 784.6,-441.37 1104.14,-651.08 1144.75,-1772.56 31.94,-881.3 51.45,-2344.14 -41.56,-3195.25z"/>
  </g>
 </g>
</svg>
